<?xml version="1.0" standalone="no"?><!DOCTYPE svg PUBLIC "-//W3C//DTD SVG 20010904//EN"
        "http://www.w3.org/TR/2001/REC-SVG-20010904/DTD/svg10.dtd"><svg version="1.0" xmlns="http://www.w3.org/2000/svg" width="989.000000pt" height="989.000000pt" viewBox="0 0 989.000000 989.000000" preserveAspectRatio="xMidYMid meet"><metadata>Created by potrace 1.14, written by Peter Selinger 2001-2017</metadata><g transform="translate(0.000000,989.000000) scale(0.100000,-0.100000)" fill="#000000" stroke="none"><path d="M3879 6887 c-580 -318 -1057 -582 -1061 -585 -7 -7 2096 -1225 2116
-1225 15 0 2116 1213 2116 1222 -1 3 -386 218 -857 476 -471 259 -947 520
-1058 581 l-202 111 -1054 -580z"/><path d="M2660 4881 c0 -907 3 -1151 13 -1159 6 -5 464 -258 1017 -562 553
-303 1024 -563 1048 -576 l42 -25 -2 1127 -3 1126 -1030 595 c-566 327 -1042
601 -1057 609 l-28 15 0 -1150z"/><path d="M6138 5417 l-1058 -611 0 -1118 c0 -822 3 -1118 11 -1118 6 0 483
259 1060 576 l1049 577 0 1153 c0 635 -1 1154 -2 1153 -2 0 -479 -276 -1060
-612z"/></g></svg>